<svg t="1587626912435" class="icon" viewBox="0 0 1088 1024" version="1.1" xmlns="http://www.w3.org/2000/svg" p-id="4474" width="200" height="200"><path d="M750.144 29.696l158.656 91.52a64 64 0 0 1 30.784 67.712l-11.392 58.432a96.192 96.192 0 0 0 70.016 111.488l39.552 10.368a64 64 0 0 1 47.744 61.888v177.28a64 64 0 0 1-45.76 61.312l-41.536 12.352a99.712 99.712 0 0 0-69.312 115.2l10.368 51.392a64 64 0 0 1-30.72 68.096l-155.328 89.6a64 64 0 0 1-77.248-10.176l-33.856-33.856a97.024 97.024 0 0 0-137.216 0l-33.856 33.92a64 64 0 0 1-77.248 10.112l-155.2-89.6a64 64 0 0 1-30.72-68.16l10.368-51.2c10.24-50.56-19.776-100.608-69.248-115.328l-41.664-12.352a64 64 0 0 1-45.824-61.376V427.648a64 64 0 0 1 43.52-60.608l44.864-15.104A102.656 102.656 0 0 0 217.6 233.408l-9.216-43.904a64 64 0 0 1 30.592-68.608L396.48 29.888a64 64 0 0 1 74.368 7.424l33.408 29.504a103.68 103.68 0 0 0 136.448 0.64l35.584-30.72a64 64 0 0 1 73.856-7.04z m-176.64 304a185.28 185.28 0 1 0 0 370.496 185.28 185.28 0 0 0 0-370.56z" p-id="4475"></path></svg>
